<!-- Generator: Adobe Illustrator 18.0.0, SVG Export Plug-In . SVG Version: 6.00 Build 0)  -->
<!DOCTYPE svg PUBLIC "-//W3C//DTD SVG 1.1//EN" "http://www.w3.org/Graphics/SVG/1.1/DTD/svg11.dtd">
<svg class="logo" version="1.1" id="Layer_1" xmlns="http://www.w3.org/2000/svg" xmlns:xlink="http://www.w3.org/1999/xlink" x="0px" y="0px"
	 viewBox="0 0 952 539" enable-background="new 0 0 952 539" xml:space="preserve">
<path d="M525.9,209.6c2.1-2.1,3.7-4.7,6.6-5.9c0.4-0.2,0.7-0.5,1-0.8c1.6-2.2,4.1-3.4,6.3-4.8c0.9-0.6,1.8-1.2,2.7-1.7
	c3.8-2.2,7.4-4.7,11.4-6.6c8.2-3.9,16.9-6.6,25.9-8.5c7.5-1.6,14.9-2.8,22.6-2.4c0.2,0,0.4,0,0.6,0c4.4-0.1,8.7-0.5,13.1-0.4
	c2.6,0,5.2-0.2,7.6,0.1c4.8,0.6,9.6,0.3,14.4,0.6c1.7,0.1,3.4-0.2,5.1-0.3c1.2-0.1,2.3-0.1,3.5-0.1c1.1,0,1.9,0.5,2.7,1.4
	c1.4,1.7,3.2,2.1,5.1,1.2c1.2-0.5,2.2-1.4,3.3-2c0.8-0.5,1.7-1.2,2.5-1.3c3.1-0.2,6-1.4,9.1-2c7.8-1.5,14.4-5.2,19.6-11.2
	c3.7-4.3,7.3-8.8,9.4-14.1c0.8-1.9,1.3-3.9,1.6-5.8c0.4-2.8,0.7-5.7,0.6-8.6c-0.1-3.6-0.7-7.2-1.4-10.8c-0.9-4.4-2.5-8.3-4.8-12.1
	c-1-1.6-1.7-3.1-1.8-5c-0.1-2.5-1.4-4.3-4-5.2c-1.2-0.4-2.4-1.4-3.4-2.4c-2.1-2.1-4-4.4-6.1-6.6c-2.1-2.1-4.1-4.6-6.6-6
	c-3.3-1.9-6.1-4.4-8.6-7.1c-4.5-4.9-9.7-9-14.7-13.3c-4.2-3.6-8.7-6.9-13-10.4c-2.6-2.1-5.1-4.3-7.8-6.2c-4-2.8-8.1-5.5-12.3-8.1
	c-4.7-2.9-9.6-5.6-14.4-8.4c-2.3-1.3-4.8-1.6-7.4-0.7c-1.9,0.6-3.9,1.1-5.9,1.5c-6.3,1.2-11.6,4.1-16.3,8.5
	c-1.5,1.4-3.1,2.7-4.5,4.1c-2.9,3.1-5.8,6.4-7.3,10.4c-1.9,5-2.6,10.2-1.9,15.5c0.4,2.9,0.6,6,2.1,8.7c2,3.8,4.1,7.5,6,11.3
	c1.3,2.6,2.4,5.3,3.6,7.9c0.5,1.2,0.6,2.3-0.1,3.4c-1.6,2.5-1.9,4.9-0.3,7.5c0.9,1.5,0.4,2.6-1,3.6c-1.3,0.9-2.7,1.7-4.2,2.4
	c-0.7,0.4-1.6,0.6-2.5,0.6c-3,0-3.3-0.6-2.1-3.3c0.1-0.3,0.3-0.6,0.4-0.9c1.6-3.9-0.2-8.3-4-9.9c-3.7-1.5-7.3-1.4-10.8,0.6
	c-1.5,0.9-1.5,0.8-2.9-0.5c-4.5-4.4-8.8-9-14-12.7c-3.4-2.4-6.8-4.9-10.6-6.6c-6.5-2.9-13.1-4.4-20.3-3.3c-2.6,0.4-4.9,1.5-7.3,2.4
	c-3,1.1-5.1,3.5-7.4,5.5c-0.3,0.3-0.6,0.6-0.8,1c-0.7,1.8-1.5,3.6-2.1,5.4c-0.9,3-1.2,3.1-3.5,0.9c-0.3-0.3-0.5-0.7-0.9-0.9
	c-2.8-2.3-6.1-3-9.6-2.7c-1.1,0.1-1.4,0.8-1.4,1.8c0,1.6,0.9,2.9,2,3.9c2.6,2.6,5.3,5,7.8,7.6c2,2,4,3.9,5.7,6
	c2.6,3.1,4.8,6.5,7.4,9.7c3.9,4.8,8,9.5,12,14.2c2.4,2.9,4.8,5.7,7.3,8.6c1.4,1.6,1.8,3.3,1,5.3c-0.8,1.9-2.5,2.6-4.3,2.9
	c-1.4,0.2-2.8,0.5-4.1,0.5c-2.1,0-4.4,0.2-6.4-0.4c-3.6-1.1-7.4-1.7-10.7-3.9c-3.8-2.5-7.3-5.2-10.3-8.6c-2.7-3-5.4-6-8.2-9
	c-1.1-1.2-2.3-2.2-3.4-3.4c-1.5-1.7-2.7-3.5-4.2-5.1c-3.8-3.9-7.1-8.1-10.5-12.4c-1.4-1.8-4-2.7-6.1-4c-0.2-0.1-0.6-0.1-1-0.1
	c-1.7,0-5.5,2.6-5.9,4.2c-0.2,0.7-0.1,1.5,0.2,2.1c0.6,1.2,1.3,2.5,2.2,3.5c4,5,7.7,10.3,12.2,14.9c0.4,0.4,0.8,0.8,1,1.2
	c1.7,3.4,4,6.3,6.2,9.3c1.3,1.9,2.5,4,3.3,6.2c1.1,3.3,1.9,6.8,2.7,10.2c0.9,4.1-0.1,8.1-2.1,11.4c-2.2,3.7-4.5,7.5-8.8,9.6
	c-2.4,1.1-4.8,2.2-7.3,2c-8.3-0.8-12.6-3-16.2-10.4c-1.8-3.6-3.4-7.4-4.8-11.2c-2.1-6-4.9-11.6-8.4-16.9c-2.6-3.9-5.5-7.6-9-10.8
	c-6.7-6.1-14.8-9.7-23.6-11.8c-4.9-1.1-9.8-1.3-14.6-0.2c-3,0.7-5.8,1.6-7.8,4.1c-0.4,0.5-0.9,0.9-1.4,1.3c-1.5,0.9-2.2,2.3-3,3.7
	c-1.2,2.4-1.8,5-1.5,7.7c0.2,1.9-0.8,2.5-2.6,2c-0.8-0.3-1.6-0.6-2.4-1c-3.1-1.5-6.4-1.9-9.7-1.8c-2.5,0.1-5.1,0.7-6.9,2.8
	c-0.8,1-1.8,1.9-2.5,2.9c-0.9,1.3-1.8,2.7-2.4,4.1c-1.1,2.8-2,5.6-3,8.4c-0.2,0.7-0.4,1.6-1.4,1.5c-0.5-0.1-1.1-0.6-1.5-1
	c-1.1-1.5-2.1-3.2-3.3-4.7c-1-1.2-2.1-2.6-3.5-3.2c-2.7-1.1-5.6-1.8-8.5-2.5c-0.7-0.1-1.9,0.4-2.2,0.9c-0.7,1.4-1.9,2.2-3,3.2
	c-0.8,0.7-1.2,1.9-1.6,3c-0.3,0.8-0.2,1.5,0.8,2.1c1.3,0.8,1.3,1.5,0.4,2.6c-1.2,1.6-2.6,3.2-4,4.6c-3.9,3.8-8.1,7.4-13.1,9.8
	c-4.2,2-8.6,3.9-12.9,5.7c-2.9,1.2-5.9,2-9.1,0.9c-1.2-0.4-2.5-0.5-3.8-0.5c-2.2-0.1-4.4-0.1-6.6-0.2c-8.5-2.7-21.5-1.2-27.3,6.1
	c-1.3,1-2.7,1.3-4.3-0.1c-0.1-0.1-0.2-0.1-0.3-0.1c-1.7-0.4-2.7,0.4-2.7,2.2c0.1,4.3-2.2,7.7-5.1,10.6c-0.9,0.8-1.7,1.7-1.7,3
	c-0.1,2.5-0.9,4.8-1.9,7.1c-0.3,0.7-0.5,1.4-0.6,2.1c-0.1,2.4-1.1,4.7-1,7.2c0.2,2.4,0.8,4.9,0.6,7.3c0,0.9,0,1.7-0.1,2.6
	c-0.1,1-0.6,1.6-1.7,1.4c-1.4-0.2-2.2,0.4-2.7,1.7c-0.8,2-1.6,3.9-2.6,5.8c-0.7,1.3-1.4,2.7-2.6,3.7c0,0.7,0.6,0.7-0.9,1.7
	c-0.6,0.4-1.2,1-1.7,1.4c-4.7,3.8-9.7,7.1-15.2,9.5c-4.6,2.1-9.5,3.2-14.4,4.5c-1.6,0.4-3.4,0.6-5.1,0.5c-2.1-0.1-4,0.5-5.9,1.4
	c-1.6,0.8-1.8,1.1-1.4,2.7c0.3,1.5,0.7,3,1,4.5c-0.2,2.9-0.3,5.8-0.6,8.7c-0.4,1.2-0.8,2.4-1.4,3.4c-2.7,4.9-5.2,10-8.6,14.6
	c-2.1,2.8-4.2,5.7-6.9,7.9c-1.7,1.4-3.6,2.7-5.3,4.1c-2.8,2.3-6,4-9.2,5.9c-2.4,1.4-5.4,1.5-7.3,3.7c-0.1,0.2-0.7,0.3-0.9,0.1
	c-1.3-0.7-2.5,0-3.7,0.2c-1.6,0.4-3.1,1-4.5,1.6c-1.5,0.6-3,1-4.6,1c-1.9,0-4,0.2-5.6,1c-1.2,0.6-1.9,0.9-3.1,0.4
	c-0.7-0.3-1.5-0.4-2.2-0.3c-3.8,0.4-7.2-1-10.6-2.1c-3.7-1.2-7.1-2.7-10.5-4.6c-3-1.7-5.7-3.7-8.7-5.4c-1.7-1-3.5-2.2-4.9-3.6
	c-4.1-4.4-9.5-7.7-12.2-13.4c-0.1-0.3-0.4-0.5-0.6-0.7c-2.8-2.5-4.4-5.8-5.9-9c-1.5-3.1-1.9-6.8-3.5-9.9c-0.2-0.5-0.2-1-0.3-1.6
	c-0.2-1-0.2-2.2-0.7-3.1c-0.1-0.2-0.2-0.3-0.2-0.5c-0.2-1.6-0.5-3.1-0.9-4.6c-0.5-2.1-0.7-4.2-0.8-6.3c0.1-1.1,0-2.2-0.1-3.3
	c0-0.4,0-0.9,0-1.3c0-5.9,0.8-11.5,2-17.2c0.2-0.5,0.4-1,0.5-1.5c0.8-2.9,1.9-5.7,3.4-8.3c0.3-0.6,0.4-1.2,0.7-1.8
	c0.6-1.3,1.2-2.5,1.7-3.8c1.4-3.6,4.6-6.1,5.8-9.8c0.1-0.4,0.6-0.6,0.8-1c2.7-3.6,6.1-6.5,8.3-10.5c0.6-1.2,1.7-2.2,2.6-3.2
	c2.8-2.8,5.6-5.6,8.4-8.3c1.2-1.2,2.5-2.4,3.8-3.6c2.3-1.7,4.5-3.5,6.8-5.2c2.7-2,5.6-4,8.4-5.9c0.8-0.5,1.6-1,2.5-1.5
	c4-2.2,8.3-3.9,12.6-5.5c1.6-0.6,3.2-1.4,4.3-2.6c1.2-1.4,2.3-1.8,4.1-1.8c3.8,0,5.5-3.1,3.7-6.4c-0.6-1.2-1.5-2.3-2.4-3.4
	c-3.8-4.4-5.2-9.8-6-15.3c-0.5-3.5-0.7-7,0.1-10.5c0.4-1.5,0.2-3.2,0.5-4.8c0.3-1.7,0.5-3.4,1.2-5c1.3-2.9,1.3-6,1.6-9.1
	c0.1-1.5-0.7-2.4-2.1-2.9c-1-0.4-2-0.4-3.1-0.1c-3.2,0.9-5.4,3-7.2,5.6c-2.1,3-3.9,6.1-5.5,9.4c-1.3,2.6-2.5,5.5-3,8.4
	c-0.3,2-0.2,4-1.5,5.7c-0.1,0.1-0.1,0.4-0.1,0.6c-0.1,4-0.3,7.9-0.4,11.9c-0.1,2.5-0.1,4.9-0.1,7.4c0,0.5-0.1,0.9-0.3,1.2
	c-12.8,3.9-23.9,14.9-33,23.6c-14.3,13.6-25.6,29.7-32.2,48.4c-0.1,0.4-0.2,0.8-0.1,1.1c-3.1,7.4-4.8,15.3-4.4,23.2
	c0,0.3,0.1,0.6,0.2,0.9c-0.2,1.3-0.4,2.7-0.4,4c-0.9,5.1-0.3,10,0.6,14.9c-0.2,1.3-0.2,2.5,0.7,3.6c0.4,3.1,0.2,6.2,1.3,9.1
	c0.1,1,0.4,1.9,1,2.7c0.8,4.5,2.1,9.5,5.2,12.4c0,0,0,0.1,0.1,0.1c0.9,2,1.9,4,2.8,6.1c2.3,5.3,5.3,10.2,9.4,14.3
	c0.5,0.5,1,0.9,1.3,1.4c1.9,3.1,4.7,5.3,7.5,7.3c3.1,2.2,6.3,4.3,9.6,6.3c5.4,3.2,10.8,6.4,17,8.1c1.5,0.4,3.1,0.7,4.7,1.1
	c2.4,0.7,4.8,1.1,7.2,0.2c0.6-0.2,1.5-0.1,2.2-0.1c1.9,0.1,3.8,0.6,5.7,0.4c4.7-0.5,9.4-0.9,13.9-2c5-1.1,9.9-2.5,14.9-3.6
	c5.8-1.3,11.1-3.9,16-7c1.6-1,3.1-2.2,4.7-3.4c0.6-0.4,1.2-1,1.8-1.3c4.9-2,8.7-5.4,12.1-9.3c2.4-2.7,4.6-5.6,6.9-8.4
	c0.3-0.4,0.7-0.8,1-1.3c1.2-2.3,2.3-4.5,3.4-6.8c0.7-1.5,1.3-3.1,1.9-4.7c0.4-1.1,0.4-2.5,1.1-3.3c1.5-1.9,1.8-4.1,2.2-6.3
	c0.7-4.4,1.8-8.8,0.9-13.3c-0.4-1.9,0.2-3,2.1-3.8c3-1.2,6-2.1,9-3.3c3.1-1.1,6.3-2,9.2-3.8c3.4-2.2,2.9-2.3,6.3-4.5
	c1.4-0.9-1.3,2.3,0,1.3c3-2.4,5.9-5,8.8-7.4c1.4-1.1,1.8-1,2.5,0.7c1.2,3,2.3,5.9,3.7,8.9c2.7,6,6.7,10.7,12.1,14.2
	c5.4,3.4,11.2,5.8,17.4,7.2c0.7,0.2,1.5,0.4,2.1,0.8c0,0,8.2,1.3,8.6,1.2c1.8-0.5,3.5-0.6,5.4-0.7c6.9-0.3,13.5-1.6,19.9-4.4
	c7.5-3.2,13.1-8.6,17.5-15.1c2.9-4.4,4.9-9.4,6.2-14.7c1-4.4,1.4-8.9,1.7-13.4c0.2-3.1,0.6-6.2,0.3-9.3c-0.6-6.4-2.7-12.5-5.4-18.4
	c-0.5-1.1-1-2.2-1.8-3c-3.2-3.3-6.3-6.7-9.7-9.8c-1.8-1.6-1.6-3,0.7-3.7c0.4-0.1,0.8-0.2,1.2-0.4c3.4-1.3,6.8-2.6,9.8-4.7
	c1.5-1,2.9-2.3,4.5-3.1c3.3-1.8,5.6-4.6,7.7-7.6c0.3-0.4,0.6-0.9,0.9-1.3c0.5-0.6,1.2-0.6,1.7-0.1c0.4,0.3,0.8,0.7,1.1,1.2
	c1.5,2.2,3,4.4,4.4,6.7c1.8,2.8,3.6,5.6,5.4,8.3c1.5,2.3,3.1,4.6,4.7,6.9c4.2,6.3,8.3,12.7,12.5,19.1c1.9,2.9,3.7,5.7,5.5,8.6
	c2.1,3.5,4,7.1,6.2,10.5c1.7,2.7,4.1,4.6,7.2,5.6c2,0.6,4.6-0.4,5.2-2.4c0.1-0.4,0.1-0.9,0.2-1.3c0.2-0.7,0.5-0.7,1.1-0.3
	c2.1,1.3,3.6,0.6,3.7-1.7c0.1-1,0.1-2.2-0.4-3.1c-1.5-2.7-1.6-5.6-4.1-7.7c-1-0.8-1.6-2-2.4-3c-2-2.9-2.9-5.9-4.9-8.8
	c-3.2-4.6-6.8-9.4-8.7-14.7c-1.3-3.6-4.9-7.2-6.6-10.6c-1.2-2.4-2-5.2-4.4-7c-0.4-0.3-0.5-1.2-0.5-1.8c-0.5-6.2,0.4-12.1,3.7-17.6
	c2.2-3.6,5.6-4.6,9.2-2.3c0.6,0.4,1.2,0.9,1.7,1.4c1,0.9,2.1,1.8,3.1,2.8c1.8,2,4,3.5,5.5,5.8c0.8,1.3,2.3,2.3,3.6,3
	c2.1,1.1,4.2,0.7,6-0.8c1.8-1.4,1.7-3.3,1-5.3c-0.2-0.5-0.2-1.1-0.5-1.5c-1.1-1.5-1.5-3.3-2.2-4.9c-2.3-5.6-0.7-10.7,2.5-15.1
	c3.5-4.9,8.6-5.8,14.4-3.9c8.6,2.8,13.5,8.1,18.6,15.7c2.1,3.1,3.4,6.1,5.6,9.1c1.8,2.4,3.1,5.1,3.9,8c1.2,4.5,5.6,9,7.8,13.2
	c2.1,4,4.7,6.7,8.1,9.7c2.7,2.4,12.5,4.2,14.3,3.7c2.2-0.6,4.4-1,6.6-1.5c4.5-1,8.7-1.7,12.7-4.1c4.4-2.7,7.4-6.5,9.4-11
	c2.8-6.3,3.8-12.9,2.3-19.8c-0.2-0.8-0.2-1.7-0.2-2.6c0-0.7,0.6-1,1.1-0.6c0.4,0.3,0.8,0.7,1.2,1c3.1,2.3,5.9,5,9.3,6.8
	c3.5,1.9,7.1,3.4,11.2,3.6c4.8,0.3,9.3-0.8,13.6-2.8c1.8-0.8,3.8-1.5,5.5-2.6c2.8-1.8,6-3.4,6.9-7.2c0.3-1.3,1.2-2,2.5-2
	c1.1,0,2-0.6,2.7-1.5c1.2-1.7,0.9-3.5-1-5.4c-3.4-3.4-6.8-6.7-10-10.3c-3.3-3.6-7.4-6.5-10-10.7c-1.8-3-4.5-5.3-6.3-8.4
	c-2.3-4-3.2-7.9-0.8-12.1c0.4-0.7,0.7-1.6,1.1-2.3c1.1-1.9,2.8-3.4,5-3.7c2.8-0.3,5.7-0.3,8.2,1c3.1,1.5,6.1,3.1,8.9,5.1
	c6.4,4.6,12.8,9.4,19,14.3c5.2,4.2,11.1,7.2,16.9,10.4c1.9,1,4,1.8,6.2,1c3.8-1.4,7.6-2.7,11.3-4.3c1.6-0.7,2.9-2.1,4.4-3.1
	c1.3-0.8,2-1.8,2.4-3.3c0.4-1.4,1-2.7,2.1-3.9c2.4-2.8,2.4-5.7,0.3-8.8c-0.5-0.8-1.3-1.4-1.9-2.2c-0.6-0.7-1.1-1.5-0.3-2.3
	c0.2-0.2,1.1,0.1,1.7,0.3c0.8,0.3,1.6,0.6,2.4,1c3.4,1.4,6.8,2.5,10.4,3.1c2.1,0.4,4.2,0.5,6.4,0.6c1.1,0.1,1.9,0.3,2,1.6
	c0,0.3,0.5,0.8,0.8,0.8c0.3,0,0.7-0.3,0.9-0.6c0.2-0.3,0.2-0.9,0.5-1.2c0.7-1,1.9-0.8,2.9-0.8c1,0,0.6,0.9,0.6,1.5
	c0,1.3,0.8,2.2,1.8,2.9c1.4,1,3.2,0.9,4.4-0.3c1.2-1.1,1.2-2.8,0-4.3c-0.9-1.2-0.9-1.4,0.5-2c2-0.8,4-1.4,6-2.2
	c3.1-1.3,5.8-3.2,8.4-5.2c3.2-2.4,5.9-5.2,7.8-8.8c0.9-1.7,1.3-1.8,2.9-0.5c2.8,2.2,5.6,4.4,8.2,6.8c6.2,5.9,12.4,11.8,18.5,17.8
	c1.9,1.8,1.9,2.1,0,4.2c-1.6,1.8-2,3.7-1.2,5.9c1,2.9,3,4.7,5.8,5.6c0.9,0.3,1.9,0.5,2.8,0.6c1,0.1,1.7,0.7,1.8,1.6
	c0.1,2.5,0.8,5.1,0.1,7.6c-0.5,2-0.7,2.1-2.9,2.1c-2.3,0-4.2,0.6-5.7,2.3c-1.1,1.3-1.3,1.7-0.4,3.1c0.9,1.4,1.9,2.8,3,4.1
	c0.8,1.1,0.9,1.5,0,2.5c-1.6,1.6-3.2,3.1-5.8,2.9c-1.5-0.1-2.6,0.4-3.6,1.7c-0.5,0.7-1.5,1.3-2.3,1.6c-2.7,0.8-5.4,1.4-8.1,2.1
	c-0.9,0.2-1.5,0-2-1c-0.8-1.4-1.8-1.3-2.5,0.1c-0.3,0.8-0.5,1.8-1.4,1.9c-1.4,0.2-2.8,0.4-4.1,0.1c-0.8-0.2-1.4-1.2-2-1.9
	c-2.3-2.7-5.3-2.3-6.8,0.9c-0.6,1.2-1.3,1.5-2.5,1.4c-2-0.3-4-0.5-6.1-0.7c-4-0.5-8-1.2-12.1-1.4c-5.4-0.3-10.9-0.5-16.3-0.3
	c-4.9,0.2-9.8,0.5-14.7,1.5c-4.4,0.8-8.9,1.3-12.9,3.6c-0.4,0.2-0.8,0.2-1.2,0.4c-3,1.2-6,2.3-8.9,3.6c-2.3,1.1-4.4,2.6-6.7,3.7
	c-3.2,1.6-6.4,3-9.6,4.5c-6.4,3.1-12.3,7-18,11.1c-3.2,2.3-6.2,4.9-9.2,7.5c-4.3,3.7-8.5,7.5-12.7,11.3c-4.4,4-8.5,8.1-11.8,13.1
	c-2.9,4.4-6.1,8.5-9.7,12.3c-0.7,0.7-1.2,1.5-1.8,2.2c-3.1,4.2-6.2,8.4-9.3,12.6c-3.2,4.3-6.3,8.6-9.4,13c-1.3,1.8-2.5,3.8-3.6,5.7
	c-1.6,2.5-3.1,5.1-4.8,7.6c-3.6,5.3-7.5,10.4-11.8,15.2c-2.9,3.3-5.8,6.6-9.1,9.5c-4.8,4.2-9.9,8.2-14.7,12.3
	c-2.1,1.8-4.1,3.8-6.9,4.3c-0.2,0-0.4,0.2-0.6,0.3c-2.8,1.9-5.7,3.8-8.5,5.8c-2.8,2-5.4,4.1-8.7,5.3c-0.7,0.2-1.3,0.7-2,1
	c-2.5,1.4-5,2.9-7.5,4.3c-3.9,2.2-7.9,3.8-12.4,4.2c-0.5,0-1.1,0.1-1.5,0.4c-2.6,1.2-5.2,2.5-7.8,3.6c-1.4,0.6-2.9,0.8-4.3,1.2
	c-0.8,0.2-1.7,0.3-2.5,0.6c-4.6,1.6-9.3,2.2-14.2,1.8c-4-0.4-8.1-0.3-12.2-0.5c-0.7,0-1.5,0-2.2-0.1c-3.5-0.4-7-0.9-10.5-1.2
	c-5-0.5-9.9-1.3-14.7-2.9c-1-0.3-2.1-0.5-3.1-0.3c-2.5,0.5-3.2,2.1-2,4.3c0.4,0.7,0.9,1.4,1.5,2c1.8,1.7,3.8,3.2,6.2,3.9
	c4.9,1.5,9.9,2.8,15.1,3c2.4,0.1,4.9,0.6,7.3,0.8c3.2,0.3,6.4,1,9.6,0.8c2.4-0.1,4.7-0.1,7,0.2c6,0.7,11.9,0.9,17.7-1.3
	c0.7-0.3,1.5-0.4,2.2-0.5c5.6-1,11-2.7,16.3-4.6c2.6-1,5.3-1.7,7.9-2.7c3.3-1.3,6.4-2.9,9.6-4.4c6.9-3.2,13.8-6.4,19.9-11
	c1.6-1.2,3.5-2.1,5.2-3.1c5.1-3.3,9.6-7.4,15-10.4c0.5-0.3,0.8-0.7,1.2-1.1c1.8-1.8,3.3-3.9,6-4.6c0.2-0.1,0.4-0.2,0.5-0.3
	c1.2-2.1,3.5-3.1,5.2-4.7c4.3-4.2,8.7-8.3,11.9-13.4c2.7-4.2,6.4-7.7,9-12c0.7-1.1,1.5-2.1,2.3-3.1c2.7-3.8,5.5-7.6,8.2-11.4
	c3.8-5.3,5.9-11.6,10.9-16.2c2.1-2,3.5-4.9,5.3-7.2c2-2.5,4.1-4.9,6.2-7.3c1.1-1.3,2.3-2.5,3.5-3.7c1.1-1.2,2.1-2.4,3.3-3.5
	c2.1-2.1,4.2-4.2,6.3-6.3c1-1,1.9-2,2.9-2.9C520.4,214.7,523.3,212.3,525.9,209.6z M283.9,226.5c0.2,0.8,0.1,1.7,0,2.5
	c-0.4,3.6-0.2,8.6-1.6,11.9c-1.7,4.2-4.4,6.5-7.3,9.5c-1,1.1-2.1,2.1-3.2,3.1c-3,2.9-6,5.8-9.6,7.9c-1,0.6-2.1,1.1-3.2,1.4
	c-3.7,1-10.5-0.5-14.4-0.4c-4.2,0.1-8-1.5-11.7-3.1c-4.4-2-6.2-5.7-8.4-9.8c-2.3-4.4-4.2-7.9-5.6-12.6c-0.9-3.1-1-6.3-0.8-9.5
	c0.1-1.1,0.2-2.2,0-3.2c-0.3-1.8-0.1-3.6,0.2-5.4c0.3-2.1,0.1-4.1,1.3-5.9c0.9-1.3,1.3-2.9,2-4.4c0.2-0.6,0.3-1.3,0.7-1.8
	c1.3-1.6,1.6-4.4,2-6.3c0.4-1.7,1.5-2.3,0.9-4c-0.6-2-0.4-0.3,1.4-1.3c1-0.5,2-1.2,2.9-2c2.8-2.7,5.4-4.4,9.1-4.6
	c0.6,0,1.3,0.2,1.8,0.5c4.4,2,9.1,0.5,13.8,0.6c3.5,0.1,6.8,0.7,9.7,2.8c2,1.4,4.1,2.8,5.9,4.4c4.1,3.7,7.2,8.1,9.1,13.3
	c0.6,1.6,1.5,3.1,2,4.7C281.9,218.9,282.9,222.7,283.9,226.5z M620.7,76.1c-1.9,4.4-4.2,8.5-8.3,11.1c-5.4,3.4-11.1,6.1-17.5,6.9
	c-0.7,0.1-1.5,0.1-2,0.2c-4-0.3-7.6-1.1-11-2.8c-1.4-0.7-2.4-1.6-3.3-2.9c-1.5-2.3-3.2-4.5-4.8-6.8c-0.5-0.8-0.8-1.7-1.1-2.6
	c-0.5-1.6-0.8-3.3-1.3-5c-0.8-3-0.7-5.8,0.3-8.8c1.4-4.5,3.7-8.4,6.3-12.2c2.2-3.3,5.3-5.9,8.9-7.6c1.7-0.8,3.5-1.5,5.3-2.4
	c1.3-0.6,2.5-0.5,3.6,0.3c5.5,3.5,11.1,6.9,15.9,11.4c1.7,1.6,3.6,3,5.6,4.3c2.4,1.7,3.9,3.8,4.5,6.7
	C622.5,69.4,622.2,72.7,620.7,76.1z M196,237.8c-0.4,0.6-0.5,1-0.5,1.2c-0.4,0.3-0.8,0.6-1.3,0.8C193.3,240.3,196.5,237.1,196,237.8
	z M817.2,292.6c1.9-0.2,3.8-0.7,5.7-1c6.3-0.9,12-2.8,16.6-7.5c0.4-0.4,0.9-0.6,1.3-1c0.4-0.3,0.9-0.6,1.1-1.1
	c1.7-3.2,3.6-6.2,4.6-9.8c2.5-8.6,1.9-16.9-2-25c-0.7-1.5-1.7-3-2.6-4.4c-2.3-3.2-4.6-6.4-6.9-9.6c-0.4-0.5-0.8-1-1.3-1.4
	c-2.7-1.6-4.4-4.6-7.6-5.7c-1.1-0.4-1.1-1.6-0.2-2.3c0.4-0.3,0.9-0.6,1.3-0.9c3.3-2.1,6.3-4.5,8-8.1c0.4-0.9,1-1,1.8-0.2
	c1.7,1.8,3.3,3.7,5.1,5.3c5.6,5.1,9.9,10,13.9,14.7c4.1,4.9,8.2,9.9,12.4,14.7c2.1,2.4,4.7,4.4,7.9,5.4c1.6,0.5,3.2,0.6,4.7-0.3
	c1.3-0.7,1.8-1.5,1.5-2.9c-0.9-3.6-1.9-7.2-4.7-10c-2.4-2.4-4.5-5.1-6.5-7.9c-1.9-2.8-6.2-8-8.2-10.8c-3.5-5.1-5.4-10.7-6.7-16.6
	c-0.9-3.9,3.7-10.1,7.7-10.4c0.5,0,1.1,0,1.6,0.1c2.3,0.4,4.6,1,6.7,2.2c4,2.2,10.3,8.3,13.1,11.8c3.5,4.3,7.7,7.8,12.4,10.6
	c4.3,2.6,9,4,14.1,3.9c3-0.1,5.9-0.8,8.5-2.5c1.4-0.9,1.9-2.1,1.6-3.8c-0.5-2.5-2-4-4.2-4.7c-2.2-0.7-4.4-0.8-6.7-0.3
	c-3.5,0.8-6.2-0.5-8.5-3.2c-2.8-3.2-5.8-6.3-8.8-9.3c-3.4-3.5-6.9-7-10.9-9.9c-2.6-1.9-5.1-4.1-8.2-5.6c-5.5-2.7-11.2-4.1-17.3-4.1
	c-5.8,0-10.2,1-13.5,6c-1.9,2.9-2.7,5.8-2.6,9c0,1.2,0.1,2.4,0,3.5c-0.1,1.1-0.9,1.4-1.8,0.7c-1.5-1.2-2.8-2.6-4.5-3.7
	c-1.6-1-3.4-1.9-5.2-2.4c-3.9-1-8,2.9-7.3,6.8c0.1,0.7,0.2,1.5,0.4,2.2c1,3.4,0,6.2-2.8,8.2c-2,1.4-4.1,2.6-6.2,4
	c-2.7,1.8-5.5,2.8-8.7,2.7c-5.3-0.1-10.5,0.8-15.5,2.5c-3.9,1.4-7.8,2.9-11.9,4.5c0.1-1,0.2-2,0.1-2.9c-0.2-2.6-1.7-4.5-4.2-5
	c-1.4-0.3-3.3,0.5-4.2,1.7c-0.9,1.3-0.8,3.2,0.2,4.5c1.3,1.6,2.9,2.5,5,2.5c0.5,0,1,0.2,1.5,0.3c-0.3,0.5-0.6,1.1-1,1.5
	c-1.2,1.1-2.6,2-3.5,3.2c-1.5,2.1-3.5,3.4-5.6,4.8c-1.2,0.8-2.5,1.7-3.6,2.7c-3.3,3.1-6.3,6.4-9.6,9.4c-2.9,2.7-3.8,3.5-7.2,5.5
	c-4.2,2.5-8.8,4.3-13.7,5.4c-6.1,1.3-12.2,2.4-18.5,1.8c-4.2-0.4-8.1-0.4-12.2,1.1c-4.9,1.9-9.4,4.2-12.6,8.4
	c-2.1,2.7-4.1,5.5-6,8.4c-5.2,7.9-9.1,16.4-10.5,25.9c-0.7,5.3-2.1,10.5-3.4,15.7c-0.7,2.8-0.8,5.7-1,8.6c-0.3,4.9-0.6,9.8-1,14.7
	c0,0.3-0.4,0.7-0.6,1c-0.2-0.3-0.6-0.5-0.7-0.9c-2-6-4.8-11.6-8-17.1c-2.7-4.7-6.5-8.2-11.1-10.9c-5.6-3.3-11.4-6.4-17.1-9.6
	c-1.1-0.6-2.3-1.1-3.5-1.5c-6.7-1.9-13.5-2.1-20.4-1.2c-5.3,0.7-10.6,1.7-15.8,2.7c-5.1,1-10.3,1.6-15.4,2.8c-2.9,0.7-6.1,1.1-9.2,0
	c-0.9-0.3-1.9-0.4-2.9-0.4c-2.4,0-4.2-1.1-5.4-2.9c-1.6-2.5-3.4-5-4.5-7.7c-1.3-3.5-1.9-7.2-2.9-10.8c-0.5-1.7-0.2-3.1,1.2-4.3
	c1.3-1.3,1.9-3.1,0.8-4.7c-1.5-2.4-0.8-4.5,0.2-6.7c1.4-3.4,2.9-6.8,5-10c0.7-1,0.9-2.5,1.7-3.4c2.8-3.3,5.3-6.9,9.1-9.4
	c6.5-4.5,13.4-7.8,21.2-9.5c2.8-0.6,5.6-1.3,8.5-1.2c1.5,0,3,0,4.5,0.1c4.6,0.3,8.5,2.8,12.6,4.7c1.8,0.8,6.5,0.3,7.8-1.1
	c0.5-0.5,0.8-1.3,0.9-2c0.2-1,0.2-2.2,0.5-3.2c0.5-1.8,0.4-3.8,1.5-5.5c0.5-0.8,1.1-1.6,1.4-2.5c1.9-4.8,5.3-8.4,8.9-11.9
	c0.4-0.4,1-0.9,1.6-1.1c2-0.5,3.4-1.8,5-2.9c1.4-0.9,2.8-2,4.6-2.1c2.5-0.2,3.1-1.4,2.1-3.6c-0.9-2-2.7-3-4.6-3.7
	c-3.7-1.4-7.4-1.1-11,0.4c-1.4,0.6-2.8,0.8-4.4,0.7c-1.1-0.1-2.4,0.2-3.4,0.6c-4,1.6-7.5,4-10.4,7.3c-2.6,2.8-5.5,5.4-8.9,7.3
	c-1.5,0.8-2.8,2-3.8,3.3c-1,1.3-2,1.7-3.5,1.4c-1.5-0.4-3.1-0.8-4.7-0.2c-3,1-6.1,1-9.2,1.4c-1.1,0.1-1.5-0.2-1.8-1.2
	c-0.3-1-0.8-2-1.5-2.7c-1.1-0.9-2.5-1.2-3.8-0.1c-1.4,1.1-3.1,1.9-2.5,4.3c0.4,1.7,0.3,1.8-1.3,2.4c-1.8,0.7-3.6,1.3-5,2.8
	c-0.2,0.2-0.6,0.3-0.9,0.4c-2.8,1-5.5,2.3-7.8,4.2c-0.5,0.5-1.3,0.7-2,0.9c-1.3,0.4-2.3,1-3,2.3c-0.4,0.7-1.2,1.3-1.9,1.5
	c-1.3,0.4-2.3,1-3,2.2c-0.2,0.4-0.7,0.9-1.2,1c-2,0.5-3.1,2-4.3,3.5c-0.5,0.6-1,1.2-1.6,1.5c-0.9,0.5-1.4,1.2-1.8,2.2
	c-0.3,0.7-0.7,1.3-1.2,1.9c-2.9,3.5-4.9,7.4-6.9,11.4c-0.9,1.7-1.5,3.6-2,5.4c-0.6,1.9-1,3.9-1.5,5.9c-2.3,1.6,0.2,3.5-0.2,5.2
	c-0.1,0.2,0,0.4-0.1,0.6c-0.8,4.3,0.1,8.5,0.3,12.8c0.1,1.8,0.2,1.8-1.7,2.2c-1,0.2-1.9,0.5-2.2,1.6c-0.3,1.1,0,2.1,0.9,2.9
	c0.9,0.8,2,1.3,3.2,0.4c0.9-0.7,1.3-0.3,1.6,0.6c0.1,0.4,0.3,0.8,0.5,1.2c2.6,6.3,6.3,11.7,11.8,15.8c0.5,0.4,0.9,0.9,1.5,1.3
	c2.1,1.4,4.2,3.1,6.5,4.2c5.1,2.3,10.4,4,16,4.1c3.9,0,7.9,0.8,11.8-0.7c0.7-0.3,1.7-0.1,2.5,0.1c1.7,0.3,3.2,0.1,4.7-0.7
	c1.3-0.8,2.7-1.2,4.3-1.1c1.7,0.1,3.2-0.4,4.6-1.3c0.5-0.3,1.2-0.6,1.8-0.5c1.9,0.2,3.6-0.2,5.3-1.1c0.5-0.2,1-0.4,1.5-0.4
	c4.6-0.2,9.2-0.3,13.8-0.4c0.5,0,1,0.2,1.6,0.3c3.1,0.4,5.8,1.8,8.2,3.4c4.8,3,9.4,6.4,12.7,11.2c1.5,2.1,3.1,4.1,4.4,6.3
	c1.6,2.4,3.2,4.9,3.6,7.8c0.3,1.9,0.5,3.8,0.5,5.8c-0.1,4.3-0.6,8.6-3.3,12.2c-1.1,1.5-2.4,3-3.4,4.6c-2,3.1-5,5.2-7.6,7.7
	c-1.6,1.6-3.4,2.9-5,4.5c-2,1.9-4,3.8-6.8,4.8c-3.6,1.3-7.2,2.8-10.8,4c-7.1,2.3-14.3,2.4-21.6,1c-2.6-0.5-5.2-1.3-7.8-2
	c-2.5-0.7-5.3-1-7.6-2.3c-2.5-1.4-5.2-2.3-7.4-4.3c-1.8-1.6-4-2.5-6.4-2.8c-1.2-0.1-2.6,0.1-3.8,0.5c-1.7,0.6-2.4,1.8-1.8,3.5
	c0.5,1.4,1.1,2.8,2,4c2.4,3.2,5.1,6.1,8.6,8.2c3.5,2.1,7.1,4,10.7,5.9c5,2.6,10.3,4.2,16,4.3c2.6,0,5.1-0.1,7.7-0.3
	c6.2-0.4,12.4-0.8,18.6-1.4c4.7-0.5,9.3-1.5,13.2-4.6c0.7-0.5,1.5-0.9,2.3-1.1c2.2-0.5,4.1-1.4,6.1-2.6c2.7-1.7,5.4-3.5,7.7-5.7
	c1.6-1.5,3.3-2.7,5.4-3.4c2.4-0.8,4.3-2.3,6-4.2c2.4-2.6,4.6-5.4,7.1-7.8c4.4-4.1,8.3-8.6,11-14.1c0.3-0.7,0.8-1.3,1-2
	c1.2-5.2,2.3-10.5,2.6-15.8c0.4-7.4,0.7-14.8,1.9-22.1c0.1-0.7,0.3-1.5,0.5-2.2c0.1-0.2,0.7-0.3,1-0.2c0.3,0.2,0.5,0.6,0.8,1
	c2.7,3.1,4.9,6.7,7.7,9.9c6.6,7.5,15.2,11.3,24.5,13.8c6.3,1.7,12.9,2.2,19.4,1.2c4.3-0.6,8.7-1.2,12.4-3.9c0.8-0.6,1.7-0.9,2.6-1.3
	c2.7-1,5-2.4,6.9-4.5c2.3-2.4,4.4-4.9,6.5-7.5c0.6-0.7,1-1.7,1.3-2.6c1.2-3.7,2.3-7.3,3.3-11.1c1.4-5.2,1.2-10.4,0-15.6
	c-1.7-7.2-4.6-13.8-9.9-19.1c-2.3-2.2-4.1-4.9-6.7-6.8c-2.6-1.8-5.3-3.6-7.9-5.4c-0.9-0.6-0.9-1.4,0.1-2c0.2-0.1,0.4-0.2,0.6-0.3
	c2.7-1.4,5.6-2.7,8.2-4.3c3.4-2,4.8-2.1,7.5-5c0.8-0.9,1.8-1.5,2.7-2.2c1-0.7,1.4-0.6,1.8,0.7c0.4,1.1,0.7,2.3,1.2,3.3
	c2.4,5.2,5.4,9.9,8.9,14.5c3.9,5.1,8.4,9.4,13.8,12.8c1.8,1.1,3.7,2.3,5.7,2.9C802.8,293,810,293.4,817.2,292.6z M752.9,297.9
	c1.9,3.3,2.8,6.9,2.5,10.6c0.1,2.6-0.6,4.7-1.3,7c-2.2,7.6-8.3,11.4-14.3,15.3c-4.3,2.9-9.3,3.7-14.4,3.8c-7.9,0.1-14.5-2.5-20-8.5
	c-5.1-5.6-7.9-11.9-8.6-19.2c-0.2-1.8-0.1-3.6,0.3-5.4c0.9-4.4,1.9-8.7,4.3-12.6c3.1-5,7.4-8.5,12.6-11c2-0.9,3.8-1.1,5.7,0.3
	c1.6,1.1,3.5,1.4,5.5,1.6c1.3,0.1,2.5,0.4,3.8,0.5c5,0.6,9,3.1,13,5.8C746.8,289.2,750.1,293.3,752.9,297.9z M785.3,252.1
	c-0.3-3.3,2.8-6.4,4.8-10.4c0.3-0.6,0.6-1.2,1.1-1.5c1.4-1,3.2-1.6,3.9-3.6c0.2-0.5,1.3-0.7,1.9-1c1.7-0.8,3.4-1.4,4.4-3.1
	c0.5-0.9,1.4-1,2.3-0.8c0.8,0.2,1.7,0.4,2.4,0.7c3,1.3,6.1,2.6,9.1,4c3.6,1.6,6.7,3.8,9.2,6.8c1,1.1,2,2.2,2.9,3.4c2.4,3,4,6.3,3,10
	c-0.2,0.7-0.6,4.4-0.7,5.1c-0.4,3.4-2.7,5.5-5.2,7.4c-4.1,3.1-9,4.3-13.9,5.5c-6.6,1.7-13.3-3.5-18.4-7.3
	C788,264.2,785,258.8,785.3,252.1z M924.8,418.4c1.4,3.6,1.3,7.3,1.1,11.1c0,0.6-0.2,1.4-0.5,1.8c-1.8,2.3-3.4,4.8-6.1,6.5
	c-6.5,4.2-13.7,5.1-20.5,5.7c-8.5-0.4-15.9-2.2-22.3-7c-1.7-1.3-2.5-2.9-2.8-4.8c-0.2-1.2,0.6-1.8,1.7-1.4c2.3,0.9,4.6,1.8,6.8,2.8
	c4.2,2,8.7,1.9,13.2,1.7c2.4-0.1,4.9-0.6,7.3-1.1c4.5-0.9,8.5-2.7,11.8-6c1-1,1.7-2,1.8-3.3c0.5-5.1-1.1-9.5-4.2-13.5
	c-0.6-0.8-1.4-0.8-2.3-0.6c-5.3,1.4-9.6-0.6-13.7-3.7c-1.4-1-2.7-2.1-4.2-2.9c-3.5-2-5.4-4.8-4.6-9c0.1-0.4,0.1-0.9,0.1-1.3
	c0-1.2-0.2-1.4-1.3-1.1c-1.2,0.2-2.3,0.5-3.4,0.8c-3.5,0.9-5.4,4.1-4.3,7.6c0.5,1.7,1.3,3.4,2.1,5c0.7,1.4,1.5,2.8,2.4,4.2
	c0.4,0.7,0.7,1.5,0,2c-0.5,0.4-1.4,0.9-1.9,0.8c-2-0.5-4.1-0.8-5.4-2.5c-1.3-1.6-2.7-3.4-3.7-5.2c-1.1-1.8-1.7-3.9-2.7-5.8
	c-1-1.9-1-3.8-0.5-5.9c1-4.5,3.7-7.6,7.7-9.7c2.4-1.3,4.8-0.7,6.9,1c1,0.8,1.8,1.8,2.7,2.7c0.8,0.7,1.2,0.7,1.7-0.2
	c1.7-2.9,2.4-3.1,5.2-1.3c1,0.6,1.9,1.4,2.6,2.3c1.9,2.4,3.6,5,5.5,7.4c0.6,0.8,1.4,1.7,2.2,2.3c0.4,0.3,1.3,0.3,1.8,0
	c0.4-0.3,0.7-1.1,0.6-1.6c-0.5-2.1-1-4.2-1.7-6.2c-0.6-1.9-0.4-3.6,0.5-5.3c0.4-0.8,1-1,1.8-0.7c4,1.4,6.7,4.2,8.4,7.9
	c1.3,2.6,2.3,5.3,3.4,8C920.3,406.2,922.5,412.3,924.8,418.4z M836.2,394.2c-3.1-2.1-6-4.7-10.1-5.2c-2.2-0.3-3.7,0.3-5.1,1.7
	c-2.2,2.2-2.7,5-2.6,8c0,0.9,0.2,1.8,0.3,2.9c-0.4-0.2-0.7-0.2-0.8-0.3c-2.4-2.9-5.1-5.5-8.6-7.1c-1.1-0.5-1.6-1.4-1.5-2.6
	c0.1-1.6-0.7-2.9-1.5-4.1c-1.5-2.2-3.6-3-6.1-2c-1.8,0.7-3.5,1.7-5,2.8c-1.6,1.2-2.1,3-1.8,4.9c0.5,2.9,2,5.2,4.7,6.5
	c2.2,1.1,4.5,1.9,7,2.1c0.9,0.1,1.9,0.3,2.8,0.6c1,0.4,2.5,0.6,2.4,2.2c-0.1,1.5-1.5,1.6-2.6,2.1c-2.2,0.9-4.4,0.4-6.7,0.5
	c-2,0.1-3.8-0.4-5.1-2.1c-0.7-0.9-2.4-0.6-2.4,0.4c0,2.2-0.4,4.5,1.1,6.5c1.7,2.1,3.9,3.4,6.4,4.1c5.2,1.5,10.5,2,15.5-0.9
	c2.9-0.4,3.4-2.8,4.1-5c0.2-0.5,0-1.1,0.1-1.6c0-0.3,0.2-0.7,0.3-0.8c0.2-0.1,0.7,0.1,0.8,0.3c2.1,3,5.3,4.2,8.6,5.3
	c4.5,1.6,8.6,1,12.5-1.7c3-2.1,3.6-4.5,1.9-7.7C842.7,400.1,839.9,396.7,836.2,394.2z M835.1,403.7c-1.5,0.5-3.1,0.8-4.6,1
	c-1,0.1-1.9-0.3-2.4-1.3c-0.6-1.2-0.5-2.6,0.3-3.7c0.3-0.5,1.3-0.5,1.9-0.8c2.3,0,4,1,5.4,2.7C836.3,402.5,836.2,403.3,835.1,403.7z
	 M398.8,83.9c-0.6-2.2-0.1-4.2,1.5-5.9c0.8-0.8,1.8-1.5,2.7-2.2c1.5-1.1,2.7-2.2,3.6-4c1.3-2.7,5.1-2.8,6.5-0.3
	c0.9,1.6,2.1,2.1,3.7,2.6c2.7,0.9,5.4,1.8,7.6,3.9c1.7,1.6,2.3,3.4,1.9,5.4c-0.9,3.9-2.7,7.2-6.9,8.5c-1.9,0.6-3.9,1-5.5,1.5
	c-5.9-0.7-10.8-2.5-14.1-7.3C399.4,85.5,399.1,84.7,398.8,83.9z M865.2,392.5c1,1.5,0.8,2.6-0.8,3.4c-0.9,0.4-2,0.5-3,0.7
	c-2.7-0.3-3.8,0.4-4.8,2.6c-1,2.1-0.9,3.9,0.7,5.6c1.1,1.2,2.2,2.4,3.1,3.7c1.3,1.9,0.8,3.3-1.5,3.6c-1.1,0.1-2.4,0-3.4-0.5
	c-4.9-2.8-8.5-6.7-10-12.3c-0.4-1.6-0.4-3.1,0.4-4.4c2-3.3,4.1-6.5,7.5-8.7c1.4-0.9,2.8-1.1,4.2-0.4
	C860.9,387.3,863.4,389.6,865.2,392.5z M176.8,323.2c-0.2,0.9-0.7,1.9-1.3,2.4c-2,1.6-3.8,3.4-5.2,5.6c-1.9,3-4.7,5.2-7.3,7.6
	c-0.9,0.9-2.1,1.5-3.5,1.3c-0.7-0.1-1.5-0.2-2.2-0.5c-6.1-2.4-5.7-5.3-3.2-9c1.2-1.8,2.5-3.3,5-3.6c2.3-0.3,4.6-1,6.9-1.5
	c2.2-0.4,4.3-1,6-2.8c0.6-0.7,1.5-1.2,2.4-1.6C175.8,320.7,177.1,321.8,176.8,323.2z M342.4,398.7c-0.8,2.4-2.2,4.4-4.2,5.9
	c-3.1,2.2-6.6,3.6-10.5,3.5c-0.5,0-1.1,0-1.6-0.1c-3.1-0.3-4-1.9-2.7-4.9c1.6-3.7,4-6.9,7.4-9c1.7-1,3.7-1.5,5.7-2.1
	c0.8-0.2,1.7,0,2.5,0.2C342.1,393.1,343.4,395.6,342.4,398.7z M926.7,394.3c-0.9-0.9-1.8-1.9-2.3-3c-2.1-4.8-4.6-9.4-7.7-13.6
	c-1.5-2-2.7-4.1-3.8-6.3c-0.6-1.1-1-2.4-1.2-3.6c-0.1-1,0.2-2.3,1.4-2.7c0.8-0.2,2,0,2.7,0.5c1.4,1.2,2.7,2.5,3.6,4
	c2.9,4.8,5.7,9.7,8.2,14.8c1.2,2.3,1.4,5.1,2,7.2c-0.2,1.1-0.2,1.7-0.3,2.2C928.8,394.8,927.5,395.2,926.7,394.3z M768.9,131.8
	c-2.3-4.1,0.4-7.8,5.4-7.7c2.5,0.1,4.8,1,6.6,2.7c1.7,1.7,2.4,3.8,1.6,6.1c-0.7,2.2-3,3.6-5.5,3.6
	C773.3,136.7,770.6,134.9,768.9,131.8z M658.2,145.4c-0.5,1.4-0.9,2.8-1.4,4.2c-0.4,1.1-1,2.1-1.4,3.2c-0.5,1.2-1.7,1.7-2.4,0.8
	c-1-1.3-2.5-1.6-3.7-2.3c-1-0.6-2-1.3-2.7-2.2c-1.5-1.7-1.1-4.2,0.6-5.7c1.7-1.4,3.6-2.2,5.8-2.5C656.2,140.5,658,142.1,658.2,145.4
	z M353.5,487.6c-0.2,4-2.4,8.7-9.5,8.4c0.3,0-0.1,0-0.5,0c-1.7-0.2-2.2-0.8-2.1-2.5c0.3-3,1.6-5.5,3.8-7.5c1.4-1.3,3.2-1.7,5-1.7
	C352.3,484.2,353.6,485.4,353.5,487.6z M657.8,133.6c1.3-1.5,2.6-3.1,4.1-4.5c0.6-0.6,1.5-0.9,2.3-1.1c1.3-0.4,2.7-0.7,3.8,0.6
	c1.1,1.4,2.3,2.9,1.3,4.9c-1.5,3.1-4.2,5-7.3,6.4c-0.2,0.1-0.4,0.1-1.1,0.1c-1-0.4-2.4-0.8-3.8-1.4c-0.2-0.1-0.4-0.5-0.4-0.8
	C656.7,136.3,656.8,134.8,657.8,133.6z M261.4,140.9c-1.6-1.8-1.6-3.7-0.1-5.5c1.4-1.6,3.1-2.5,5.3-2.7c1.7-0.2,5.2,1.7,6,3.1
	c0.4,0.7,0.6,1.6,0.5,2.4c-0.3,3-2.9,5.1-5.9,5.1C264.8,143.4,262.9,142.7,261.4,140.9z M459,441.7c-0.5,0.4-1.1,0.6-1.7,0.9
	c-3.4,2.1-7.1-0.9-7.3-3.9c0-0.4-0.1-0.8-0.1-1.5c0-2,0.7-3.8,2.7-4.9c2-1.2,4.1-1.1,6.1,0C461.8,434.2,462,439.5,459,441.7z
	 M613,195.6c-0.8,2.6-3.1,3.9-5.7,3.4c-3.2-0.6-4.6-1.9-5.1-4.9c-0.4-2.6,0.6-4.1,3.1-4.8c0.8-0.2,1.7-0.4,2.1-0.5
	C611.9,188.8,614.2,191.8,613,195.6z M937.1,410.9c-2.2,1.6-3.8,2-5.1,0.5c-1.8-1.9-3.1-4.2-4.6-6.4c-0.2-0.3-0.2-0.8-0.3-1.1
	c0-2.9,1.8-4.3,4.5-3.4c1,0.3,2,0.9,2.7,1.6c1.3,1.4,2.6,2.8,3.6,4.4C939.2,408.2,938.8,409.6,937.1,410.9z M172,219.2
	c0-3.2,2.3-5.7,5.3-5.7c3-0.1,5.5,2.3,5.6,5.4c0.1,2.8-2.2,5-5.1,5.1C174.6,223.9,172,221.8,172,219.2z M308.2,511.3
	c-0.8,4.5-1.9,5.3-5.6,5.7c-1.3,0-1.9-0.8-1.8-2c0.5-3.7,0.3-6.1,3.8-7C307.3,507.2,308.7,508.6,308.2,511.3z M515.8,300.2
	c0.2,2.1-1.1,3.4-2.7,4.3c-1.1,0.6-1.1,1.1-0.7,2.2c0.7,1.7,0.2,2.8-1,3.2c-1.6,0.5-3.1-0.6-2.8-2.3c0.1-0.5,0.3-1.1,0.7-1.4
	c1-0.9,0.6-1.4-0.3-1.9c-0.1,0-0.2-0.1-0.3-0.2c-1.7-1.6-2.2-3.4-1.4-5.1c0.9-2.2,3.1-2.8,5-2.7
	C514.7,296.4,515.8,297.6,515.8,300.2z M484.4,339.9c0.9,1.8,0.3,3.3-0.8,4.8c-1.8,2.4-4.1,3-6.4,1.7c-1.9-1.1-2.6-3-1.5-4.9
	c0.6-1.2,1.5-2.3,2.5-3.3c0.5-0.5,1.3-0.6,1.5-0.7C482.1,337.5,483.6,338.1,484.4,339.9z M642.5,192.9c0.6,1.7-0.2,3.5-1.9,4.3
	c-0.9,0.4-1.8,0.5-2.4,0.6c-3.8,0.1-5.4-2.6-3.9-5.6c0.8-1.7,2.1-2.6,4-2.5C639.7,189.8,642,191.6,642.5,192.9z M557.8,271.3
	c2.3,0.1,4.2,2.3,4,4.8c-0.1,1.7-2.1,3.2-4.2,3.1c-2.5-0.1-4.2-2-4.1-4.7C553.6,272.6,555.4,271.2,557.8,271.3z M445.8,451
	c0,1.6-1,3-2.6,3.6c-1.2,0.5-3-0.1-4-1.3c-1-1.3-1.1-2.7-0.4-4.2c0.1-0.2,0.2-0.4,0.3-0.5c1.1-1.4,3.2-2.2,4.9-1.7
	C445.1,447.2,445.8,448.8,445.8,451z M592.7,212.4c0.5,1.8-0.1,3.1-1.7,4c-1.7,1-4.3,0.4-5.4-1.2c-0.7-1-0.6-2.2,0.2-3.2
	c1-1.1,2.2-1.7,4.1-1.6C591.5,210.4,592.3,210.9,592.7,212.4z M640.5,187.2c0.1-2.2,2.5-4.3,5-4.4c1.4-0.1,2.1,0.7,2.2,2.1
	c0,1.7-1.8,4.5-3.3,5.1C642.5,190.9,640.4,189.3,640.5,187.2z M363.8,481.3c0.2,1.9-1.3,3.5-3.2,3.6c-1.8,0-3.4-1.4-3.4-3.1
	c0-1.8,1.4-3.1,3.3-3.2C362.3,478.5,363.6,479.6,363.8,481.3z M184.5,211.9c-0.8-2.3,0.8-4.5,3.3-4.4c1.6,0.1,3,1.4,3,3.1
	c0,0.5-0.4,1.3-0.8,1.6c-1.1,0.5-2.4,0.9-3.6,1.2C185.4,213.4,184.8,212.8,184.5,211.9z M613.2,204.3c0.4-1.1,0.7-2.3,1.4-3.2
	c0.8-1.3,2-1.6,3.4-1c1.5,0.6,2.2,1.5,2,2.9c-0.2,1.4-1.1,2.3-2.5,2.5c-0.6,0.1-1.3,0-1.9,0c0,0,0,0.1,0,0.1c-0.4,0-0.9,0-1.3,0
	C613.5,205.4,612.9,205.1,613.2,204.3z M382.7,527.6c0.7,0.7,1,1.7,1.3,2.2c-0.2,2.5-1.2,3.8-2.5,3.9c-1.4,0.1-2.5-0.6-3-1.9
	c-0.6-1.6-0.1-3.2,1.2-3.9C380.7,527.3,381.8,526.6,382.7,527.6z M631.2,109.9c-1.5-1.1-1.4-2.7,0.2-3.6c0.8-0.5,1.8-0.6,3-1
	c0.7,0.5,1.7,0.8,2.2,1.4c0.8,1,0.3,2.8-0.7,3.8c-0.8,0.7-1.6,1-2.6,0.5C632.5,110.6,631.8,110.3,631.2,109.9z M185,316.8
	c-0.1,1.9-1.4,3-3.3,2.8c-1.3-0.1-2.3-1.3-2.2-2.6c0.1-1.6,1.4-2.4,3.8-2.3C184.5,314.8,185.1,315.4,185,316.8z M522.3,326.4
	c0.1,1.5-1,2.8-2.3,2.9c-1.7,0.1-2.9-1-3-2.6c-0.1-1.6,1-2.4,3.3-2.5C521.5,324.1,522.2,324.9,522.3,326.4z M661.7,108.7
	c0,1.5-1,2.7-2.5,2.8c-1.5,0.1-2.7-1.1-2.8-2.5c-0.1-1.2,1.1-2.5,2.3-2.6C660.4,106.3,661.7,107.4,661.7,108.7z M498.1,366.7
	c0,1.1-1.3,2.4-2.5,2.5c-1.3,0.1-2.5-1.1-2.4-2.4c0-1.1,1.3-2.2,2.7-2.2C497.1,364.5,498.1,365.5,498.1,366.7z M415.2,403.2
	c-0.1,1.2-1.1,2.2-2.3,2.2c-1.2,0-2.2-1.1-2.2-2.2c0-1.2,1.4-2.4,2.9-2.3C414.5,401,415.3,402.1,415.2,403.2z M626.6,110.3
	c-1.4,0.1-2.9-1.2-2.9-2.4c0-1,0.9-1.9,2.2-1.9c1.4,0,2.4,0.8,2.5,2C628.4,109.1,627.6,110.2,626.6,110.3z M476.9,365.3
	c0.1,1.1-0.7,2.2-1.7,2.3c-1.1,0.1-2.1-1-2.2-2.3c-0.1-1.2,0.7-2,1.9-2.1C475.9,363.2,476.8,364.1,476.9,365.3z M196.5,290.4
	c-0.5,0.1-1.4-0.3-1.6-0.7c-0.2-0.6-0.2-1.5,0.2-2c0.4-0.6,1.3-1,2-1.4c0.5,0.3,1.2,0.5,1.2,0.7c0.1,0.8,0.3,1.7,0,2.4
	C198,289.8,197.1,290.3,196.5,290.4z M412.1,7.1c0-1,0.8-1.6,1.9-1.6c1.2,0,2,0.7,2,1.5C416,8.1,415,9,414,8.9
	C413,8.8,412.1,7.9,412.1,7.1z M201.2,302.1c0,0.9-0.6,1.6-1.5,1.7c-1,0.1-2-0.5-2.1-1.4c-0.1-0.8,0.7-1.7,1.7-1.9
	C200.2,300.4,201.2,301.1,201.2,302.1z M352.2,518.6c0.1,1-0.7,1.9-1.6,1.9c-1,0-1.7-0.6-1.8-1.4c-0.1-1,0.7-1.9,1.6-1.9
	C351.3,517.1,352.2,517.8,352.2,518.6z"/>
</svg>
