<?xml version="1.0" encoding="utf-8"?>
<!-- Generator: Adobe Illustrator 16.0.0, SVG Export Plug-In . SVG Version: 6.00 Build 0)  -->
<!DOCTYPE svg PUBLIC "-//W3C//DTD SVG 1.1//EN" "http://www.w3.org/Graphics/SVG/1.1/DTD/svg11.dtd">
<svg version="1.1" id="github" xmlns="http://www.w3.org/2000/svg" xmlns:xlink="http://www.w3.org/1999/xlink" x="0px" y="0px"
	 width="300px" height="300px" viewBox="0 0 300 300" enable-background="new 0 0 300 300" xml:space="preserve">
<g>
	<path fill-rule="evenodd" clip-rule="evenodd" d="M150.00049,28.10352
		c-69.0166,0-124.98291,55.95361-124.98291,124.98047c0,55.2207,35.81055,102.06738,85.4707,118.59863
		c6.24561,1.15527,8.54053-2.71191,8.54053-6.01758c0-2.97754-0.11621-12.8252-0.17041-23.26563
		c-34.76953,7.55859-42.10693-14.74707-42.10693-14.74707c-5.68555-14.44629-13.87695-18.28809-13.87695-18.28809
		c-11.34082-7.75586,0.85498-7.59863,0.85498-7.59863c12.54932,0.88184,19.15771,12.88184,19.15771,12.88184
		c11.14697,19.10547,29.23877,13.58301,36.37207,10.39063c1.12061-8.07617,4.3584-13.5957,7.93408-16.71484
		c-27.76025-3.1582-56.94385-13.87695-56.94385-61.76758c0-13.64258,4.88281-24.79395,12.87842-33.54639
		c-1.29688-3.1499-5.57568-15.85889,1.21094-33.0752c0,0,10.49658-3.35889,34.37793,12.81152
		c9.9707-2.77002,20.66309-4.15723,31.28369-4.20557c10.62158,0.04834,21.3208,1.43555,31.30908,4.20557
		c23.85645-16.17041,34.33496-12.81152,34.33496-12.81152c6.80371,17.21631,2.52734,29.92529,1.22852,33.0752
		c8.0127,8.75244,12.86426,19.90381,12.86426,33.54639c0,48.00586-29.23828,58.57227-57.07031,61.66895
		c4.4834,3.87695,8.47754,11.48438,8.47754,23.14258c0,16.72363-0.14746,30.18457-0.14746,34.29785
		c0,3.32715,2.25293,7.22461,8.58691,6.00098c49.63086-16.5459,85.39844-63.37988,85.39844-118.58203
		C274.98242,84.05713,219.02539,28.10352,150.00049,28.10352z"/>
	<path d="M72.35547,207.54883c-0.27441,0.62402-1.25342,0.81152-2.14258,0.38086
		c-0.90674-0.40723-1.41455-1.25293-1.12158-1.87402c0.26855-0.63867,1.24707-0.81836,2.15283-0.39355
		C72.15137,206.06934,72.66846,206.92773,72.35547,207.54883L72.35547,207.54883z M70.81738,206.41211"/>
	<path d="M77.41895,213.19824c-0.59668,0.55078-1.76318,0.29395-2.55273-0.57715
		c-0.81885-0.87598-0.97119-2.04004-0.36621-2.59961c0.61523-0.55078,1.74414-0.29297,2.56299,0.57617
		C77.88135,211.47949,78.04102,212.63574,77.41895,213.19824L77.41895,213.19824z M76.22607,211.91406"/>
	<path d="M82.34668,220.3916c-0.7666,0.5332-2.01953,0.03711-2.79443-1.07324
		c-0.76563-1.1123-0.76563-2.44727,0.01855-2.98047c0.77441-0.53418,2.00928-0.05078,2.79346,1.0459
		C83.12793,218.51758,83.12793,219.85156,82.34668,220.3916L82.34668,220.3916z M82.34668,220.3916"/>
	<path d="M89.09717,227.35059c-0.68506,0.75391-2.14502,0.54688-3.2124-0.48145
		c-1.09326-1.00781-1.39648-2.4375-0.71045-3.19434c0.69531-0.75391,2.1626-0.54102,3.23779,0.48145
		C89.49707,225.16309,89.82617,226.60059,89.09717,227.35059L89.09717,227.35059z M89.09717,227.35059"/>
	<path d="M98.41113,231.38672c-0.3042,0.97949-1.7085,1.42383-3.12354,1.00781
		c-1.41455-0.42969-2.33887-1.57715-2.05322-2.5625c0.29297-0.9873,1.70557-1.45313,3.13086-1.00684
		C97.77783,229.25488,98.70313,230.38965,98.41113,231.38672L98.41113,231.38672z M98.41113,231.38672"/>
	<path d="M108.63916,232.13672c0.03467,1.0293-1.16553,1.88184-2.65137,1.90234
		c-1.49414,0.03418-2.7041-0.79883-2.72119-1.81348c0-1.04395,1.1748-1.88867,2.66846-1.91211
		C107.42041,230.28418,108.63916,231.11133,108.63916,232.13672L108.63916,232.13672z M108.63916,232.13672"/>
	<path d="M118.15723,230.51563c0.17773,1.00781-0.85498,2.03516-2.33057,2.31152
		c-1.45166,0.26563-2.79248-0.35645-2.97949-1.35156c-0.17969-1.03027,0.87158-2.06445,2.32031-2.33105
		C116.64551,228.88867,117.96924,229.49219,118.15723,230.51563L118.15723,230.51563z M118.15723,230.51563"/>
</g>
</svg>
