<?xml version="1.0" encoding="utf-8"?>
<!-- Generator: Adobe Illustrator 16.0.0, SVG Export Plug-In . SVG Version: 6.00 Build 0)  -->
<!DOCTYPE svg PUBLIC "-//W3C//DTD SVG 1.1//EN" "http://www.w3.org/Graphics/SVG/1.1/DTD/svg11.dtd">
<svg version="1.1" xmlns="http://www.w3.org/2000/svg" xmlns:xlink="http://www.w3.org/1999/xlink" x="0px" y="0px"
	 width="300px" height="300px" viewBox="0 0 300 300" enable-background="new 0 0 300 300" xml:space="preserve">
<g id="mail">
	<path display="inline" d="M149.99951,150L35.30371,73.64844h229.3916L149.99951,150z M264.69531,226.35156V77.25244
		L40.7168,226.35156H264.69531z M35.30371,77.25244v149.09912l111.98877-74.5498L35.30371,77.25244z"/>
</g>
<g id="twitter">
	<path display="inline" d="M263.94043,79.32617c-8.38379,3.71826-17.39551,6.23193-26.85254,7.36182
		c9.65234-5.78564,17.06641-14.94824,20.55664-25.86572c-9.0332,5.35791-19.03906,9.24902-29.6875,11.3457
		c-8.5293-9.08691-20.67871-14.76416-34.12598-14.76416c-25.82031,0-46.75391,20.93262-46.75391,46.75098
		c0,3.66455,0.41357,7.23242,1.21045,10.6543c-38.85547-1.94922-73.30469-20.56201-96.36328-48.84814
		c-4.02441,6.90527-6.33008,14.93652-6.33008,23.50439c0,16.21973,8.25439,30.52979,20.79883,38.91406
		c-7.66406-0.24268-14.87256-2.3457-21.17627-5.84766c-0.00342,0.19531-0.00391,0.39063-0.00391,0.5874
		c0,22.65283,16.11523,41.54883,37.50342,45.84375c-3.92383,1.06836-8.05371,1.63965-12.31787,1.63965
		c-3.01221,0-5.94141-0.29297-8.7959-0.83887c5.94971,18.57422,23.21533,32.0918,43.67334,32.46875
		c-16.00049,12.53906-36.15918,20.01367-58.06299,20.01367c-3.77393,0-7.49561-0.22168-11.15283-0.65332
		c20.69043,13.26465,45.26514,21.00488,71.66699,21.00488c85.99463,0,133.01904-71.24023,133.01904-133.02148
		c0-2.02686-0.04492-4.04346-0.13477-6.04834C249.74609,96.93652,257.67285,88.70166,263.94043,79.32617z"/>
</g>
<g id="github">
	<path display="inline" d="M150.00049,48.10352c-57.69287,0-104.47656,46.77295-104.47656,104.47461
		c0,46.16016,29.93506,85.32031,71.44727,99.13965c5.2207,0.96582,7.13916-2.26758,7.13916-5.03027
		c0-2.48926-0.09717-10.7207-0.14258-19.44824c-29.06445,6.31836-35.19824-12.32813-35.19824-12.32813
		c-4.75244-12.0752-11.6001-15.28711-11.6001-15.28711c-9.47998-6.4834,0.71484-6.35156,0.71484-6.35156
		c10.49023,0.7373,16.01416,10.76758,16.01416,10.76758c9.31836,15.9707,24.44189,11.35449,30.40479,8.68652
		c0.93652-6.75098,3.64307-11.36523,6.63232-13.97266c-23.20557-2.63965-47.60107-11.60059-47.60107-51.6333
		c0-11.40381,4.08154-20.72559,10.76563-28.04199c-1.08447-2.6333-4.66113-13.25684,1.01221-27.64844
		c0,0,8.77441-2.80811,28.7373,10.70947c8.33496-2.31543,17.27295-3.4751,26.15088-3.51563
		c8.87842,0.04053,17.82275,1.2002,26.17236,3.51563c19.94141-13.51758,28.70117-10.70947,28.70117-10.70947
		c5.6875,14.3916,2.1123,25.01514,1.02734,27.64844c6.69727,7.31641,10.75293,16.63818,10.75293,28.04199
		c0,40.12939-24.44043,48.9624-47.70605,51.55127c3.74707,3.24023,7.08594,9.59961,7.08594,19.34473
		c0,13.98047-0.12305,25.23242-0.12305,28.6709c0,2.78125,1.88379,6.03906,7.17773,5.0166
		c41.48828-13.83105,71.38672-52.98145,71.38672-99.12598C254.47559,94.87646,207.7002,48.10352,150.00049,48.10352z"/>
	<path display="inline" d="M85.09473,198.10645c-0.229,0.52148-1.04736,0.67871-1.79102,0.31836
		c-0.75781-0.33984-1.18213-1.04688-0.9375-1.56641c0.22461-0.53418,1.04248-0.68457,1.7998-0.3291
		C84.92432,196.87012,85.35645,197.58691,85.09473,198.10645L85.09473,198.10645z"/>
	<path display="inline" d="M89.32764,202.8291c-0.49902,0.45996-1.47412,0.24609-2.13379-0.48242
		c-0.68457-0.73242-0.81201-1.70508-0.30615-2.17285c0.51416-0.46094,1.45801-0.24512,2.14258,0.48145
		C89.71436,201.39258,89.84766,202.3584,89.32764,202.8291L89.32764,202.8291z"/>
	<path display="inline" d="M93.44678,208.8418c-0.64063,0.44629-1.68799,0.03125-2.33594-0.89648
		c-0.64014-0.92969-0.64014-2.0459,0.01563-2.49219c0.64746-0.44629,1.67969-0.04199,2.33496,0.875
		C94.1001,207.27539,94.1001,208.39063,93.44678,208.8418L93.44678,208.8418z"/>
	<path display="inline" d="M99.08984,214.65918c-0.57275,0.62988-1.79297,0.45703-2.68555-0.40234
		c-0.91357-0.84277-1.16748-2.03711-0.59375-2.66992c0.58105-0.63086,1.80762-0.45215,2.70654,0.40234
		C99.42383,212.83105,99.69922,214.03223,99.08984,214.65918L99.08984,214.65918z"/>
	<path display="inline" d="M106.87549,218.0332c-0.25439,0.81836-1.42822,1.19043-2.61084,0.84277
		c-1.18262-0.35938-1.95508-1.31836-1.71631-2.14258c0.24463-0.8252,1.42529-1.21484,2.61719-0.8418
		C106.34619,216.25098,107.11963,217.2002,106.87549,218.0332L106.87549,218.0332z"/>
	<path display="inline" d="M115.42529,218.66016c0.0293,0.86035-0.97412,1.57324-2.21631,1.58984
		c-1.24902,0.0293-2.26025-0.66699-2.27441-1.51563c0-0.87305,0.98193-1.5791,2.23047-1.59863
		C114.40674,217.11133,115.42529,217.80273,115.42529,218.66016L115.42529,218.66016z"/>
	<path display="inline" d="M123.38184,217.30469c0.14844,0.84277-0.71484,1.70117-1.94824,1.93262
		c-1.21338,0.22168-2.33447-0.29785-2.49072-1.12988c-0.1499-0.86133,0.72852-1.72559,1.93994-1.94824
		C122.11816,215.94531,123.22461,216.44922,123.38184,217.30469L123.38184,217.30469z"/>
</g>
</svg>
